<svg version="1.1" id="Layer_1" xmlns="http://www.w3.org/2000/svg" xmlns:xlink="http://www.w3.org/1999/xlink" x="0px" y="0px"
	 width="100%" viewBox="0 0 163 148" enable-background="new 0 0 163 148" xml:space="preserve">
<path fill="#212020" opacity="1.000000" stroke="none" 
	d="
M96.000000,1.000001 
	C97.388893,1.000000 98.777779,1.000000 100.792824,1.362766 
	C104.294907,1.796328 107.170845,1.867124 110.448479,1.977460 
	C113.271843,2.406037 115.693512,2.795075 117.330559,3.058064 
	C113.939407,5.087844 110.158058,6.972773 106.840172,9.472772 
	C104.698959,11.086161 104.266350,13.302515 106.727905,15.759242 
	C109.797050,18.822372 112.319496,22.433285 114.939941,26.142429 
	C113.653702,31.398296 117.336189,29.568493 119.787483,30.063148 
	C122.590431,33.209709 125.082283,36.169792 127.648979,39.063507 
	C134.102066,46.338772 140.588959,53.584061 147.008545,61.202248 
	C146.463196,63.114731 145.072510,65.247955 145.635101,66.117615 
	C148.117264,69.954628 145.307877,71.283188 142.558868,73.000160 
	C138.928543,73.556824 134.827805,71.379089 132.630997,75.942429 
	C127.143074,74.579269 122.044029,73.172287 116.881950,72.057068 
	C109.793129,70.525589 102.320183,70.411743 96.283234,65.454826 
	C88.283066,58.885933 89.506241,45.380524 98.631256,40.587418 
	C103.622963,37.965408 108.779503,37.599464 115.201027,40.162781 
	C111.515358,34.593784 107.351479,32.319012 102.121048,32.053219 
	C89.199448,31.396595 80.062233,37.697746 72.848183,48.097313 
	C69.747543,49.149307 69.244720,50.779766 71.096008,53.451038 
	C71.085373,54.881943 71.120422,55.922447 70.920944,57.113842 
	C70.825508,57.850460 70.964600,58.436184 71.207962,59.340656 
	C71.253914,60.097408 71.195580,60.535412 70.973602,61.082302 
	C70.940498,61.474239 71.071037,61.757286 71.379326,62.356632 
	C71.693146,65.115654 71.829216,67.558380 71.624504,70.075500 
	C68.806992,72.108795 66.548080,74.063255 66.808060,77.797783 
	C66.863838,78.598969 64.926163,79.594582 63.837254,80.407486 
	C61.945644,81.819656 58.709942,82.861565 58.312576,84.583618 
	C56.988926,90.319901 54.087246,91.868118 48.751999,89.634384 
	C48.858318,89.196587 49.032948,89.072647 49.310406,88.860245 
	C49.567673,88.512123 49.524151,88.277214 49.049713,87.729935 
	C49.552849,80.191658 54.236992,76.277779 61.225040,73.258911 
	C59.080059,72.803169 57.699398,72.224876 56.336468,72.264015 
	C41.604301,72.687050 29.703205,87.304634 32.465572,101.925453 
	C34.923927,114.937180 44.013210,123.749237 52.924641,132.546631 
	C57.560024,137.122711 63.257465,141.081589 61.000000,149.000000 
	C56.974815,149.000000 52.949635,149.000000 48.294395,148.698090 
	C39.644882,142.473358 30.655710,137.499268 23.773098,130.464249 
	C-6.744531,99.270851 -3.708939,43.516876 38.692608,16.738949 
	C42.528946,14.316181 46.617290,11.176105 51.904694,13.106951 
	C52.310383,14.723592 52.687733,15.951646 53.030022,17.522263 
	C49.460762,23.937910 45.926559,30.010996 42.392357,36.084080 
	C42.796494,36.329224 43.200626,36.574368 43.604763,36.819508 
	C44.014439,36.569851 44.527821,36.406769 44.818893,36.058102 
	C58.239117,19.982420 73.680557,6.923740 94.847237,2.321470 
	C95.305603,2.221810 95.618988,1.455388 96.000000,1.000001 
M110.241684,30.361080 
	C110.513557,30.423203 110.785423,30.485325 111.057297,30.547447 
	C110.705170,30.364660 110.353043,30.181871 110.102592,29.402330 
	C110.712105,28.724834 111.321617,28.047340 111.931137,27.369844 
	C111.810394,27.034025 111.689659,26.698206 111.568924,26.362387 
	C110.232224,26.925529 108.895523,27.488670 107.558823,28.051813 
	C108.372353,28.701496 109.185890,29.351181 110.241684,30.361080 
z"/>
<path fill="#F4F4F4" opacity="1.000000" stroke="none" 
	d="
M115.078003,25.807671 
	C112.319496,22.433285 109.797050,18.822372 106.727905,15.759242 
	C104.266350,13.302515 104.698959,11.086161 106.840172,9.472772 
	C110.158058,6.972773 113.939407,5.087844 117.330559,3.058064 
	C115.693512,2.795075 113.271843,2.406037 110.369431,1.746339 
	C109.888687,1.475678 110.000000,1.000000 110.000000,1.000000 
	C127.968323,1.000000 145.936646,1.000000 163.952484,1.000000 
	C163.952484,50.214809 163.952484,99.429680 163.952484,149.000000 
	C148.647598,149.000000 133.292465,149.000000 117.662781,148.719513 
	C120.628792,144.410156 125.886292,141.839737 126.605087,135.745941 
	C126.744926,135.605637 126.689301,135.213394 126.827057,134.900620 
	C127.024704,132.374649 127.084610,130.161453 127.228500,127.579819 
	C127.166779,126.473907 127.021065,125.736443 126.939529,124.618729 
	C125.742485,117.474625 122.154999,112.357719 116.086426,108.669388 
	C115.674477,108.323860 115.347107,108.246422 114.693268,107.992508 
	C111.237091,105.422302 108.107391,103.028587 104.765350,100.431870 
	C104.148865,99.882607 103.744728,99.536354 103.017670,99.109894 
	C99.196831,96.779869 95.759018,94.427711 92.175705,92.323318 
	C90.380112,91.268814 88.319344,90.665855 86.314484,89.535858 
	C86.093636,88.808342 85.936806,88.403633 85.718147,87.676315 
	C81.494545,82.044098 77.332771,76.734482 73.044350,71.244873 
	C72.647682,70.939819 72.364059,70.870132 72.065506,70.639282 
	C72.064178,70.422745 71.965294,70.001106 71.965286,70.001106 
	C71.829216,67.558380 71.693146,65.115654 71.447571,62.084816 
	C71.271126,61.322277 71.204185,61.147846 71.137245,60.973415 
	C71.195580,60.535412 71.253914,60.097408 71.312241,59.003105 
	C71.259979,57.885521 71.207718,57.424232 71.155464,56.962948 
	C71.120422,55.922447 71.085373,54.881943 71.424576,53.313606 
	C72.271370,51.214352 72.743927,49.642933 73.216476,48.071514 
	C80.062233,37.697746 89.199448,31.396595 102.121048,32.053219 
	C107.351479,32.319012 111.515358,34.593784 115.201027,40.162781 
	C108.779503,37.599464 103.622963,37.965408 98.631256,40.587418 
	C89.506241,45.380524 88.283066,58.885933 96.283234,65.454826 
	C102.320183,70.411743 109.793129,70.525589 116.881950,72.057068 
	C122.044029,73.172287 127.143074,74.579269 132.810272,76.226868 
	C135.524582,79.112648 137.629654,81.693069 139.910110,84.107864 
	C140.722488,84.968102 141.960297,85.426575 143.394104,86.106094 
	C145.526520,85.621284 147.317902,85.222534 149.001770,84.553322 
	C154.207779,82.484299 154.302887,81.580132 149.970383,78.006920 
	C147.938263,76.330925 146.550552,74.483795 148.147079,72.853653 
	C151.910156,74.916473 155.143539,76.688934 159.273193,78.952698 
	C159.437210,76.346382 160.229492,74.191505 159.513580,73.398956 
	C155.566559,69.029366 151.251282,64.992401 147.062302,60.841370 
	C140.588959,53.584061 134.102066,46.338772 127.648979,39.063507 
	C125.082283,36.169792 122.590431,33.209709 119.639847,29.755058 
	C117.836121,28.089403 116.457062,26.948538 115.078003,25.807671 
z"/>
<path fill="#F2F2F2" opacity="1.000000" stroke="none" 
	d="
M95.531342,1.000001 
	C95.618988,1.455388 95.305603,2.221810 94.847237,2.321470 
	C73.680557,6.923740 58.239117,19.982420 44.818893,36.058102 
	C44.527821,36.406769 44.014439,36.569851 43.604763,36.819508 
	C43.200626,36.574368 42.796494,36.329224 42.392357,36.084080 
	C45.926559,30.010996 49.460762,23.937910 53.352337,17.358185 
	C53.916641,15.618279 54.198124,14.386347 54.220169,13.149789 
	C54.222485,13.019951 52.694408,12.862827 51.876358,12.718363 
	C46.617290,11.176105 42.528946,14.316181 38.692608,16.738949 
	C-3.708939,43.516876 -6.744531,99.270851 23.773098,130.464249 
	C30.655710,137.499268 39.644882,142.473358 47.832169,148.698090 
	C32.356995,149.000000 16.713991,149.000000 1.035494,149.000000 
	C1.035494,99.764862 1.035494,50.529694 1.035494,1.000000 
	C32.353615,1.000000 63.708149,1.000000 95.531342,1.000001 
M62.604168,6.934153 
	C63.152721,7.437685 63.701279,7.941218 64.249832,8.444752 
	C64.513817,8.026899 64.777794,7.609047 65.041779,7.191195 
	C64.379013,7.060551 63.716251,6.929906 62.604168,6.934153 
z"/>
<path fill="#F3F2F3" opacity="1.000000" stroke="none" 
	d="
M49.207573,88.948700 
	C49.032948,89.072647 48.858318,89.196587 48.615154,89.930534 
	C48.896732,97.982872 52.355160,103.431900 59.303623,106.953529 
	C60.039062,107.133644 60.469135,107.198883 60.889339,107.613770 
	C63.252708,109.257072 65.625946,110.550735 68.309555,112.021896 
	C69.080032,112.116844 69.540138,112.034294 70.317345,112.114952 
	C74.088936,113.783524 77.543419,115.288879 81.336761,116.926941 
	C82.774521,117.398911 83.873444,117.738182 85.208908,118.346954 
	C90.629257,120.660194 95.813042,122.703918 101.311653,124.922043 
	C103.375076,126.178436 105.123688,127.260445 107.081223,128.608139 
	C113.141556,132.947571 115.886230,139.959915 114.135391,146.142471 
	C113.882324,147.036102 114.035057,148.044632 114.000000,149.000000 
	C96.645775,149.000000 79.291542,149.000000 61.468658,149.000000 
	C63.257465,141.081589 57.560024,137.122711 52.924641,132.546631 
	C44.013210,123.749237 34.923927,114.937180 32.465572,101.925453 
	C29.703205,87.304634 41.604301,72.687050 56.336468,72.264015 
	C57.699398,72.224876 59.080059,72.803169 61.225040,73.258911 
	C54.236992,76.277779 49.552849,80.191658 48.980202,87.945908 
	C49.143646,88.499008 49.207573,88.948700 49.207573,88.948700 
z"/>
<path fill="#1E1E1E" opacity="1.000000" stroke="none" 
	d="
M114.375000,149.000000 
	C114.035057,148.044632 113.882324,147.036102 114.135391,146.142471 
	C115.886230,139.959915 113.141556,132.947571 107.139114,128.261581 
	C107.390366,126.613083 107.792648,125.576820 108.166252,124.614449 
	C106.399940,123.957260 104.795494,123.124550 103.102066,122.858780 
	C102.513626,122.766434 101.704926,124.077538 100.996834,124.747650 
	C95.813042,122.703918 90.629257,120.660194 85.203537,117.980865 
	C84.469086,116.612587 83.860184,115.215523 83.506859,115.277420 
	C82.609505,115.434616 81.826622,116.245232 80.997910,116.794235 
	C77.543419,115.288879 74.088936,113.783524 70.270767,111.839661 
	C69.605881,111.098083 69.304665,110.795006 69.003441,110.491936 
	C68.668694,110.942757 68.333939,111.393578 67.999184,111.844398 
	C65.625946,110.550735 63.252708,109.257072 60.880039,107.319473 
	C60.628540,106.304382 60.376472,105.933235 60.124405,105.562080 
	C59.749023,105.987610 59.373642,106.413139 58.998260,106.838661 
	C52.355160,103.431900 48.896732,97.982872 48.683456,90.244400 
	C54.087246,91.868118 56.988926,90.319901 58.312576,84.583618 
	C58.709942,82.861565 61.945644,81.819656 63.837254,80.407486 
	C64.926163,79.594582 66.863838,78.598969 66.808060,77.797783 
	C66.548080,74.063255 68.806992,72.108795 71.624512,70.075500 
	C71.965294,70.001106 72.064178,70.422745 71.897751,71.020721 
	C70.425819,75.988518 70.198547,80.119736 74.874947,84.124908 
	C74.227875,79.302071 73.699432,75.363472 73.170998,71.424866 
	C77.332771,76.734482 81.494545,82.044098 85.438774,87.749069 
	C85.020668,88.523384 84.820114,88.902344 84.619560,89.281303 
	C85.205879,89.473755 85.792191,89.666214 86.378510,89.858673 
	C88.319344,90.665855 90.380112,91.268814 92.175705,92.323318 
	C95.759018,94.427711 99.196831,96.779869 102.941689,99.401001 
	C101.755013,101.045372 100.321381,102.318436 98.887741,103.591492 
	C99.566124,104.240219 100.244499,104.888954 100.922882,105.537689 
	C102.274483,103.903412 103.626091,102.269135 104.977692,100.634872 
	C108.107391,103.028587 111.237091,105.422302 114.845093,108.174866 
	C115.566490,108.751068 115.849022,108.885666 116.170990,108.937492 
	C122.154999,112.357719 125.742485,117.474625 126.622566,124.693352 
	C126.542442,126.081581 126.843468,127.014923 127.144501,127.948265 
	C127.084610,130.161453 127.024704,132.374649 126.465446,134.857849 
	C125.176155,135.342178 124.386230,135.556503 123.596298,135.770828 
	C123.710098,136.055954 123.823906,136.341080 123.937706,136.626205 
	C124.780220,136.379547 125.622742,136.132904 126.465256,135.886246 
	C125.886292,141.839737 120.628792,144.410156 117.194122,148.719513 
	C116.250000,149.000000 115.500000,149.000000 114.375000,149.000000 
M116.326035,118.304115 
	C116.605034,116.638748 116.884041,114.973381 117.280586,112.606445 
	C115.717110,112.758781 113.508461,112.521240 113.293037,113.068420 
	C111.891541,116.628288 110.922981,120.358612 110.055534,123.229546 
	C114.432549,123.027809 117.916504,122.867233 121.400452,122.706657 
	C121.667046,122.473152 121.933647,122.239647 122.200249,122.006134 
	C120.372467,120.983047 118.544693,119.959969 116.326035,118.304115 
M68.614052,107.540741 
	C68.115631,106.810272 67.617218,106.079796 67.118797,105.349327 
	C66.791489,105.753647 66.464180,106.157967 66.136879,106.562279 
	C66.942497,107.087372 67.748116,107.612465 68.614052,107.540741 
M105.553123,107.261719 
	C106.078667,107.367149 106.604210,107.472580 107.129753,107.578003 
	C107.136024,107.198822 107.142296,106.819633 107.148575,106.440460 
	C106.619919,106.530434 106.091263,106.620407 105.553123,107.261719 
M88.499344,116.685555 
	C87.978294,116.599533 87.457245,116.513504 86.936195,116.427483 
	C86.960526,116.690811 86.963036,117.178040 87.012566,117.182869 
	C87.514595,117.231804 88.024292,117.201988 88.499344,116.685555 
M76.736008,87.496689 
	C76.987549,87.258141 77.241470,87.021812 77.477409,86.768723 
	C77.483559,86.762131 77.293274,86.572418 77.194595,86.468109 
	C76.942924,86.706947 76.691254,86.945786 76.736008,87.496689 
M121.263817,131.503983 
	C121.012207,131.742554 120.758217,131.978912 120.522202,132.232025 
	C120.516052,132.238617 120.706223,132.428253 120.804840,132.532532 
	C121.056557,132.293655 121.308273,132.054779 121.263817,131.503983 
M92.503609,116.736176 
	C92.742188,116.987732 92.978531,117.241676 93.231667,117.477623 
	C93.238297,117.483795 93.428009,117.293564 93.532341,117.194916 
	C93.293442,116.943230 93.054550,116.691544 92.503609,116.736176 
M116.975929,130.340820 
	C117.054581,130.656265 117.133224,130.971695 117.211876,131.287140 
	C117.260696,130.989502 117.309525,130.691849 116.975929,130.340820 
M114.511757,133.444748 
	C114.511757,133.444748 114.549004,133.517990 114.511757,133.444748 
z"/>
<path fill="#929292" opacity="1.000000" stroke="none" 
	d="
M109.550018,1.000000 
	C110.000000,1.000000 109.888687,1.475678 109.967728,1.706800 
	C107.170845,1.867124 104.294907,1.796328 101.209488,1.362766 
	C103.700012,1.000000 106.400032,1.000000 109.550018,1.000000 
z"/>
<path fill="#242424" opacity="1.000000" stroke="none" 
	d="
M147.008545,61.202244 
	C151.251282,64.992401 155.566559,69.029366 159.513580,73.398956 
	C160.229492,74.191505 159.437210,76.346382 159.273193,78.952698 
	C155.143539,76.688934 151.910156,74.916473 148.147079,72.853653 
	C146.550552,74.483795 147.938263,76.330925 149.970383,78.006920 
	C154.302887,81.580132 154.207779,82.484299 149.001770,84.553322 
	C147.317902,85.222534 145.526520,85.621284 143.396362,85.675064 
	C143.004105,81.137680 142.999817,77.068993 142.995544,73.000305 
	C145.307877,71.283188 148.117264,69.954628 145.635101,66.117615 
	C145.072510,65.247955 146.463196,63.114731 147.008545,61.202244 
z"/>
<path fill="#1D1C1C" opacity="1.000000" stroke="none" 
	d="
M142.558868,73.000160 
	C142.999817,77.068993 143.004105,81.137680 143.006149,85.637405 
	C141.960297,85.426575 140.722488,84.968102 139.910110,84.107864 
	C137.629654,81.693069 135.524582,79.112648 133.171051,76.313110 
	C134.827805,71.379089 138.928543,73.556824 142.558868,73.000160 
z"/>
<path fill="#1D1C1D" opacity="1.000000" stroke="none" 
	d="
M109.999420,30.000866 
	C109.185890,29.351181 108.372353,28.701496 107.558823,28.051811 
	C108.895523,27.488670 110.232224,26.925529 111.568924,26.362387 
	C111.689659,26.698206 111.810394,27.034025 111.931137,27.369844 
	C111.321617,28.047340 110.712105,28.724834 110.051300,29.701164 
	C110.000000,30.000000 109.999420,30.000864 109.999420,30.000866 
z"/>
<path fill="#1D1C1D" opacity="1.000000" stroke="none" 
	d="
M114.939934,26.142431 
	C116.457062,26.948538 117.836121,28.089403 119.362823,29.538361 
	C117.336189,29.568493 113.653702,31.398296 114.939934,26.142431 
z"/>
<path fill="#101010" opacity="1.000000" stroke="none" 
	d="
M51.904694,13.106951 
	C52.694408,12.862827 54.222485,13.019951 54.220169,13.149789 
	C54.198124,14.386347 53.916641,15.618279 53.387398,17.015621 
	C52.687733,15.951646 52.310383,14.723592 51.904694,13.106951 
z"/>
<path fill="#111111" opacity="1.000000" stroke="none" 
	d="
M72.848190,48.097313 
	C72.743927,49.642933 72.271370,51.214352 71.470245,52.923203 
	C69.244720,50.779766 69.747543,49.149307 72.848190,48.097313 
z"/>
<path fill="#1D1C1D" opacity="1.000000" stroke="none" 
	d="
M110.000458,29.999542 
	C110.353043,30.181871 110.705170,30.364660 111.057297,30.547447 
	C110.785423,30.485325 110.513557,30.423203 110.120552,30.180973 
	C109.999420,30.000864 110.000000,30.000000 110.000458,29.999542 
z"/>
<path fill="#111111" opacity="1.000000" stroke="none" 
	d="
M70.920944,57.113842 
	C71.207718,57.424232 71.259979,57.885521 71.207962,58.684357 
	C70.964600,58.436184 70.825508,57.850460 70.920944,57.113842 
z"/>
<path fill="#111111" opacity="1.000000" stroke="none" 
	d="
M70.973602,61.082302 
	C71.204185,61.147846 71.271126,61.322277 71.269821,61.768520 
	C71.071037,61.757286 70.940498,61.474239 70.973602,61.082302 
z"/>
<path fill="#1E1E1E" opacity="1.000000" stroke="none" 
	d="
M49.310406,88.860245 
	C49.207573,88.948700 49.143646,88.499008 49.213158,88.283035 
	C49.524151,88.277214 49.567673,88.512123 49.310406,88.860245 
z"/>
<path fill="#212020" opacity="1.000000" stroke="none" 
	d="
M73.044350,71.244873 
	C73.699432,75.363472 74.227875,79.302071 74.874947,84.124908 
	C70.198547,80.119736 70.425819,75.988518 71.899078,71.237259 
	C72.364059,70.870132 72.647682,70.939819 73.044350,71.244873 
z"/>
<path fill="#212020" opacity="1.000000" stroke="none" 
	d="
M104.765350,100.431862 
	C103.626091,102.269135 102.274483,103.903412 100.922882,105.537689 
	C100.244499,104.888954 99.566124,104.240219 98.887741,103.591492 
	C100.321381,102.318436 101.755013,101.045372 103.264618,99.481209 
	C103.744728,99.536354 104.148865,99.882607 104.765350,100.431862 
z"/>
<path fill="#212020" opacity="1.000000" stroke="none" 
	d="
M127.228485,127.579819 
	C126.843468,127.014923 126.542442,126.081581 126.558380,125.073608 
	C127.021065,125.736443 127.166779,126.473907 127.228485,127.579819 
z"/>
<path fill="#212020" opacity="1.000000" stroke="none" 
	d="
M126.605087,135.745941 
	C125.622742,136.132904 124.780220,136.379547 123.937706,136.626205 
	C123.823906,136.341080 123.710098,136.055954 123.596298,135.770828 
	C124.386230,135.556503 125.176155,135.342178 126.327698,135.170624 
	C126.689301,135.213394 126.744926,135.605637 126.605087,135.745941 
z"/>
<path fill="#212020" opacity="1.000000" stroke="none" 
	d="
M86.314484,89.535858 
	C85.792191,89.666214 85.205879,89.473755 84.619560,89.281303 
	C84.820114,88.902344 85.020668,88.523384 85.500603,88.071678 
	C85.936806,88.403633 86.093636,88.808342 86.314484,89.535858 
z"/>
<path fill="#212020" opacity="1.000000" stroke="none" 
	d="
M116.086426,108.669388 
	C115.849022,108.885666 115.566490,108.751068 115.171555,108.351349 
	C115.347107,108.246422 115.674477,108.323860 116.086426,108.669388 
z"/>
<path fill="#2C2C2C" opacity="1.000000" stroke="none" 
	d="
M62.828827,6.866707 
	C63.716251,6.929906 64.379013,7.060551 65.041779,7.191195 
	C64.777794,7.609047 64.513817,8.026899 64.249832,8.444752 
	C63.701279,7.941218 63.152721,7.437685 62.828827,6.866707 
z"/>
<path fill="#212020" opacity="1.000000" stroke="none" 
	d="
M101.311653,124.922043 
	C101.704926,124.077538 102.513626,122.766434 103.102066,122.858780 
	C104.795494,123.124550 106.399940,123.957260 108.166252,124.614449 
	C107.792648,125.576820 107.390366,126.613083 106.930191,127.995895 
	C105.123688,127.260445 103.375076,126.178436 101.311653,124.922043 
z"/>
<path fill="#212020" opacity="1.000000" stroke="none" 
	d="
M81.336754,116.926941 
	C81.826622,116.245232 82.609505,115.434616 83.506859,115.277420 
	C83.860184,115.215523 84.469086,116.612587 84.966980,117.711365 
	C83.873444,117.738182 82.774521,117.398911 81.336754,116.926941 
z"/>
<path fill="#212020" opacity="1.000000" stroke="none" 
	d="
M59.303627,106.953529 
	C59.373642,106.413139 59.749023,105.987610 60.124405,105.562080 
	C60.376472,105.933235 60.628540,106.304382 60.889908,106.969833 
	C60.469135,107.198883 60.039062,107.133644 59.303627,106.953529 
z"/>
<path fill="#212020" opacity="1.000000" stroke="none" 
	d="
M68.309555,112.021896 
	C68.333939,111.393578 68.668694,110.942757 69.003441,110.491936 
	C69.304665,110.795006 69.605881,111.098083 69.953674,111.676453 
	C69.540138,112.034294 69.080032,112.116844 68.309555,112.021896 
z"/>
<path fill="#212020" opacity="1.000000" stroke="none" 
	d="
M116.521477,118.620499 
	C118.544693,119.959969 120.372467,120.983047 122.200249,122.006134 
	C121.933647,122.239647 121.667046,122.473152 121.400452,122.706657 
	C117.916504,122.867233 114.432549,123.027809 110.055534,123.229546 
	C110.922981,120.358612 111.891541,116.628288 113.293037,113.068420 
	C113.508461,112.521240 115.717110,112.758781 117.280586,112.606445 
	C116.884041,114.973381 116.605034,116.638748 116.521477,118.620499 
z"/>
<path fill="#212020" opacity="1.000000" stroke="none" 
	d="
M68.583893,107.839149 
	C67.748116,107.612465 66.942497,107.087372 66.136879,106.562279 
	C66.464180,106.157967 66.791489,105.753647 67.118797,105.349327 
	C67.617218,106.079796 68.115631,106.810272 68.583893,107.839149 
z"/>
<path fill="#212020" opacity="1.000000" stroke="none" 
	d="
M105.557861,106.986053 
	C106.091263,106.620407 106.619919,106.530434 107.148575,106.440460 
	C107.142296,106.819633 107.136024,107.198822 107.129753,107.578003 
	C106.604210,107.472580 106.078667,107.367149 105.557861,106.986053 
z"/>
<path fill="#212020" opacity="1.000000" stroke="none" 
	d="
M88.515594,116.939896 
	C88.024292,117.201988 87.514595,117.231804 87.012566,117.182869 
	C86.963036,117.178040 86.960526,116.690811 86.936195,116.427475 
	C87.457245,116.513504 87.978294,116.599533 88.515594,116.939896 
z"/>
<path fill="#212020" opacity="1.000000" stroke="none" 
	d="
M76.587799,87.340652 
	C76.691254,86.945786 76.942924,86.706947 77.194595,86.468109 
	C77.293274,86.572418 77.483559,86.762131 77.477409,86.768723 
	C77.241470,87.021812 76.987549,87.258141 76.587799,87.340652 
z"/>
<path fill="#212020" opacity="1.000000" stroke="none" 
	d="
M121.411903,131.659943 
	C121.308273,132.054779 121.056557,132.293655 120.804840,132.532532 
	C120.706223,132.428253 120.516052,132.238617 120.522202,132.232025 
	C120.758217,131.978912 121.012207,131.742554 121.411903,131.659943 
z"/>
<path fill="#212020" opacity="1.000000" stroke="none" 
	d="
M92.659637,116.588013 
	C93.054550,116.691544 93.293442,116.943230 93.532333,117.194923 
	C93.428009,117.293564 93.238297,117.483795 93.231667,117.477623 
	C92.978531,117.241676 92.742188,116.987732 92.659637,116.588013 
z"/>
<path fill="#212020" opacity="1.000000" stroke="none" 
	d="
M117.167145,130.367523 
	C117.309525,130.691849 117.260696,130.989502 117.211876,131.287140 
	C117.133224,130.971695 117.054581,130.656265 117.167145,130.367523 
z"/>
<path fill="#212020" opacity="1.000000" stroke="none" 
	d="
M114.530380,133.481369 
	C114.549004,133.517990 114.511757,133.444748 114.530380,133.481369 
z"/>
</svg>